<svg xmlns="http://www.w3.org/2000/svg" viewBox="0 0 400 400">
  <rect width="400" height="400" fill="#e8ddd0"/>
  <!-- Crewneck -->
  <path d="M100,90 L60,130 L100,155 L100,330 L300,330 L300,155 L340,130 L300,90 L260,110 C245,130 230,135 200,135 C170,135 155,130 140,110 Z" fill="#3E2A1E" opacity="0.85"/>
  <path d="M165,90 C170,105 200,115 200,115 C200,115 230,105 235,90 Z" fill="#3E2A1E" opacity="0.85"/>
  <!-- Full chest print area -->
  <rect x="155" y="155" width="90" height="90" fill="#6B4423" opacity="0.4"/>
  <circle cx="200" cy="200" r="32" fill="#8B5A2B" opacity="0.5"/>
  <circle cx="186" cy="190" r="11" fill="#3E2A1E" opacity="0.6"/>
  <circle cx="213" cy="208" r="8" fill="#3E2A1E" opacity="0.5"/>
  <circle cx="205" cy="182" r="5" fill="#C49A6C" opacity="0.5"/>
</svg>
