<svg xmlns="http://www.w3.org/2000/svg" viewBox="0 0 400 400">
  <rect width="400" height="400" fill="#8B5A2B"/>
  <path d="M100,90 L60,130 L100,155 L100,330 L300,330 L300,155 L340,130 L300,90 L260,115 C245,150 155,150 140,115 Z" fill="#2a1610" opacity="0.9"/>
  <path d="M155,90 C160,60 240,60 245,90 C240,110 200,125 155,90 Z" fill="#2a1610" opacity="0.9"/>
  <rect x="155" y="230" width="90" height="60" rx="2" fill="#1a0e08" opacity="0.6"/>
  <!-- Bold graphic block -->
  <rect x="170" y="160" width="60" height="50" fill="#8B5A2B" opacity="0.7"/>
  <rect x="175" y="168" width="50" height="5" fill="#FAFAF7" opacity="0.5"/>
  <rect x="178" y="180" width="44" height="4" fill="#FAFAF7" opacity="0.4"/>
  <rect x="175" y="192" width="50" height="5" fill="#FAFAF7" opacity="0.35"/>
</svg>
